<svg xmlns="http://www.w3.org/2000/svg" width="50" height="51" fill="none"><g clip-path="url(#a)"><path fill="#F5F5F5" d="M49.138 41.703H.862A.862.862 0 0 1 0 40.841V9.806c0-.476.386-.862.862-.862h48.276c.476 0 .862.386.862.862v31.035a.862.862 0 0 1-.862.862Z"/><path fill="#FF4B55" d="M50 11.464H0V9.806c0-.476.386-.862.862-.862h48.276c.476 0 .862.386.862.862v1.658ZM50 19.024H0v2.52h50v-2.52ZM50 13.984H0v2.52h50v-2.52ZM50 26.584H.862A.862.862 0 0 1 0 25.722v-1.658h50v2.52ZM50 34.144H0v2.52h50v-2.52ZM49.138 41.703H.862A.862.862 0 0 1 0 40.841v-1.658h50v1.658a.862.862 0 0 1-.862.862ZM50 29.104H0v2.52h50v-2.52Z"/><path fill="#41479B" d="M22.414 8.945H.862A.862.862 0 0 0 0 9.807V25.72c0 .477.386.863.862.863h21.552a.862.862 0 0 0 .862-.863V9.807a.862.862 0 0 0-.862-.862Z"/><path fill="#F5F5F5" d="m2.422 10.923.19.572.604.005c.078 0 .11.1.047.147l-.485.358.182.575a.081.081 0 0 1-.125.09l-.49-.35-.491.35a.081.081 0 0 1-.125-.09l.182-.575-.485-.358a.081.081 0 0 1 .047-.147l.604-.004.19-.573a.081.081 0 0 1 .155 0ZM2.421 13.917l.191.572.603.004c.078.001.11.1.048.147L2.778 15l.182.575a.081.081 0 0 1-.125.09l-.49-.35-.492.35a.081.081 0 0 1-.124-.09l.182-.575-.486-.359a.081.081 0 0 1 .048-.146l.603-.005.191-.572a.081.081 0 0 1 .154 0ZM2.421 16.91l.191.573.603.004c.078 0 .11.1.048.147l-.485.358.182.575a.081.081 0 0 1-.125.09l-.49-.35-.492.351a.081.081 0 0 1-.124-.09l.182-.576-.486-.358a.081.081 0 0 1 .048-.147l.603-.004.191-.573a.081.081 0 0 1 .154 0ZM2.421 19.904l.191.572.603.005c.078 0 .11.1.048.146l-.485.359.182.575a.081.081 0 0 1-.125.09l-.49-.35-.492.35a.081.081 0 0 1-.124-.09l.182-.575-.486-.358a.081.081 0 0 1 .048-.147l.603-.005.191-.572a.081.081 0 0 1 .154 0ZM2.421 22.897l.191.573.603.004c.078.001.11.1.048.147l-.485.358.182.576a.081.081 0 0 1-.125.09l-.49-.35-.492.35a.081.081 0 0 1-.124-.09l.182-.575-.486-.359a.081.081 0 0 1 .048-.147l.603-.004.191-.572a.081.081 0 0 1 .154 0ZM4.745 12.39l.19.573.604.005c.078 0 .11.1.047.146l-.485.359.182.575a.081.081 0 0 1-.125.09l-.49-.35-.491.35a.081.081 0 0 1-.125-.09l.182-.575-.485-.359a.081.081 0 0 1 .047-.146l.604-.005.19-.572a.081.081 0 0 1 .155 0ZM4.745 15.384l.19.573.604.004c.078.001.11.1.047.147l-.485.358.182.575a.081.081 0 0 1-.125.091l-.49-.35-.491.35a.081.081 0 0 1-.125-.09l.182-.576-.485-.358a.081.081 0 0 1 .047-.147l.604-.004.19-.573a.081.081 0 0 1 .155 0ZM4.745 18.378l.19.572.604.005c.078 0 .11.1.047.147l-.485.358.182.575a.081.081 0 0 1-.125.09l-.49-.35-.491.35a.081.081 0 0 1-.125-.09l.182-.575-.485-.358a.081.081 0 0 1 .047-.147l.604-.005.19-.572a.081.081 0 0 1 .155 0ZM4.745 21.372l.19.572.604.004c.078.001.11.1.047.147l-.485.358.182.576a.081.081 0 0 1-.125.09l-.49-.35-.491.35a.081.081 0 0 1-.125-.09l.182-.576-.485-.358a.081.081 0 0 1 .047-.147l.604-.004.19-.572a.081.081 0 0 1 .155 0ZM7.068 10.923l.191.572.603.005c.078 0 .11.1.048.147l-.485.358.182.575a.081.081 0 0 1-.125.09l-.49-.35-.492.35a.081.081 0 0 1-.124-.09l.182-.575-.486-.358a.081.081 0 0 1 .048-.147l.603-.005.191-.572a.081.081 0 0 1 .154 0ZM7.068 13.917l.191.572.603.004c.078.001.11.1.048.147L7.425 15l.182.575a.081.081 0 0 1-.125.09l-.49-.35-.492.35a.081.081 0 0 1-.124-.09l.182-.575-.486-.359a.081.081 0 0 1 .048-.147l.603-.004.191-.572a.081.081 0 0 1 .154 0ZM7.068 16.91l.191.573.603.004c.078 0 .11.1.048.147l-.485.358.182.575a.081.081 0 0 1-.125.09l-.49-.35-.492.35a.081.081 0 0 1-.124-.09l.182-.575-.486-.358a.081.081 0 0 1 .048-.147l.603-.004.191-.573a.081.081 0 0 1 .154 0ZM7.068 19.904l.191.572.603.005c.078 0 .11.1.048.146l-.485.359.182.575a.081.081 0 0 1-.125.09l-.49-.35-.492.35a.081.081 0 0 1-.124-.09l.182-.575-.486-.359a.081.081 0 0 1 .048-.146l.603-.005.191-.572a.081.081 0 0 1 .154 0ZM7.068 22.898l.191.572.603.004c.078.001.11.1.048.147l-.485.358.182.576a.081.081 0 0 1-.125.09l-.49-.35-.492.35a.081.081 0 0 1-.124-.09l.182-.576-.486-.358a.081.081 0 0 1 .048-.147l.603-.004.191-.572a.081.081 0 0 1 .154 0ZM9.392 12.39l.19.573.604.005c.078 0 .11.1.048.146l-.486.359.182.575a.081.081 0 0 1-.124.09l-.491-.35-.49.35a.081.081 0 0 1-.126-.09l.182-.575-.485-.359a.081.081 0 0 1 .048-.146l.603-.005.19-.572a.081.081 0 0 1 .155 0ZM9.392 15.384l.19.573.604.004c.078.001.11.1.048.147l-.486.358.182.575a.081.081 0 0 1-.124.091l-.491-.35-.49.35a.081.081 0 0 1-.126-.09l.182-.576-.485-.358a.081.081 0 0 1 .048-.147l.603-.004.19-.573a.081.081 0 0 1 .155 0ZM9.392 18.378l.19.572.604.005c.078 0 .11.1.048.147l-.486.358.182.575a.081.081 0 0 1-.124.09l-.491-.35-.49.35a.081.081 0 0 1-.126-.09l.182-.575-.485-.358a.081.081 0 0 1 .048-.147l.603-.005.19-.572a.081.081 0 0 1 .155 0ZM9.392 21.372l.19.572.604.004c.078.001.11.1.048.147l-.486.358.182.576a.081.081 0 0 1-.124.09l-.491-.35-.49.35a.081.081 0 0 1-.126-.09l.182-.576-.485-.358a.081.081 0 0 1 .048-.147l.603-.004.19-.572a.081.081 0 0 1 .155 0ZM11.715 10.923l.191.572.603.005c.079 0 .11.1.048.147l-.485.358.182.575a.081.081 0 0 1-.125.09l-.49-.35-.491.35a.081.081 0 0 1-.125-.09l.182-.575-.486-.358a.081.081 0 0 1 .048-.147l.603-.005.191-.572a.081.081 0 0 1 .154 0ZM11.715 13.917l.191.572.603.004c.079.001.11.1.048.147l-.485.359.182.575a.081.081 0 0 1-.125.09l-.49-.35-.491.35a.081.081 0 0 1-.125-.09l.182-.575-.486-.359a.081.081 0 0 1 .048-.147l.603-.004.191-.572a.081.081 0 0 1 .154 0ZM11.715 16.91l.191.573.603.004c.079 0 .11.1.048.147l-.485.358.182.575a.081.081 0 0 1-.125.09l-.49-.35-.491.35a.081.081 0 0 1-.125-.09l.182-.575-.486-.358a.081.081 0 0 1 .048-.147l.603-.004.191-.573a.081.081 0 0 1 .154 0ZM11.715 19.904l.191.572.603.005c.079 0 .11.1.048.146l-.485.359.182.575a.081.081 0 0 1-.125.09l-.49-.35-.491.35a.081.081 0 0 1-.125-.09l.182-.575-.486-.359a.081.081 0 0 1 .048-.146l.603-.005.191-.572a.081.081 0 0 1 .154 0ZM11.715 22.898l.191.572.603.004c.079.001.11.1.048.147l-.485.358.182.576a.081.081 0 0 1-.125.09l-.49-.35-.491.35a.081.081 0 0 1-.125-.09l.182-.576-.486-.358a.081.081 0 0 1 .048-.147l.603-.004.191-.572a.081.081 0 0 1 .154 0ZM14.039 12.39l.19.573.604.005c.078 0 .11.1.048.146l-.486.359.183.575a.081.081 0 0 1-.125.09l-.491-.35-.49.35a.081.081 0 0 1-.126-.09l.182-.575-.485-.359a.081.081 0 0 1 .048-.146l.603-.005.19-.572a.081.081 0 0 1 .155 0ZM14.039 15.384l.19.573.604.004c.078.001.11.1.048.147l-.486.358.183.575a.081.081 0 0 1-.125.091l-.491-.35-.49.35a.081.081 0 0 1-.126-.09l.182-.576-.485-.358a.081.081 0 0 1 .048-.147l.603-.004.19-.573a.081.081 0 0 1 .155 0ZM14.039 18.378l.19.572.604.005c.078 0 .11.1.048.147l-.486.358.183.575a.081.081 0 0 1-.125.09l-.491-.35-.49.35a.081.081 0 0 1-.126-.09l.182-.575-.485-.358a.081.081 0 0 1 .048-.147l.603-.005.19-.572a.081.081 0 0 1 .155 0ZM14.039 21.372l.19.572.604.004c.078.001.11.1.048.147l-.486.358.183.576a.081.081 0 0 1-.125.09l-.491-.35-.49.35a.081.081 0 0 1-.126-.09l.182-.576-.485-.358a.081.081 0 0 1 .048-.147l.603-.004.19-.572a.081.081 0 0 1 .155 0ZM16.363 10.923l.19.572.604.005c.078 0 .11.1.047.147l-.485.358.182.575a.081.081 0 0 1-.125.09l-.49-.35-.491.35a.081.081 0 0 1-.125-.09l.182-.575-.485-.358a.081.081 0 0 1 .047-.147l.604-.005.19-.572a.081.081 0 0 1 .155 0ZM16.363 13.917l.19.572.604.004c.078.001.11.1.047.147L16.72 15l.182.575a.081.081 0 0 1-.125.09l-.49-.35-.491.35a.081.081 0 0 1-.125-.09l.182-.575-.485-.359a.081.081 0 0 1 .047-.147l.604-.004.19-.572a.081.081 0 0 1 .155 0ZM16.363 16.91l.19.573.604.004c.078 0 .11.1.047.147l-.485.358.182.575a.081.081 0 0 1-.125.09l-.49-.35-.491.35a.081.081 0 0 1-.125-.09l.182-.575-.485-.358a.081.081 0 0 1 .047-.147l.604-.004.19-.573a.081.081 0 0 1 .155 0ZM16.363 19.904l.19.572.604.005c.078 0 .11.1.047.146l-.485.359.182.575a.081.081 0 0 1-.125.09l-.49-.35-.491.35a.081.081 0 0 1-.125-.09l.182-.575-.485-.359a.081.081 0 0 1 .047-.146l.604-.005.19-.572a.081.081 0 0 1 .155 0ZM16.363 22.898l.19.572.604.004c.078.001.11.1.047.147l-.485.358.182.576a.081.081 0 0 1-.125.09l-.49-.35-.491.35a.081.081 0 0 1-.125-.09l.182-.576-.485-.358a.081.081 0 0 1 .047-.147l.604-.004.19-.572a.081.081 0 0 1 .155 0ZM18.686 12.39l.19.573.604.005c.078 0 .11.1.048.146l-.485.359.181.575a.081.081 0 0 1-.124.09l-.491-.35-.49.35a.081.081 0 0 1-.125-.09l.181-.575-.485-.359a.081.081 0 0 1 .048-.146l.603-.005.191-.572a.081.081 0 0 1 .154 0ZM18.686 15.384l.19.573.604.004c.078.001.11.1.048.147l-.485.358.181.575a.081.081 0 0 1-.124.091l-.491-.35-.49.35a.081.081 0 0 1-.125-.09l.181-.576-.485-.358a.081.081 0 0 1 .048-.147l.603-.004.191-.573a.081.081 0 0 1 .154 0ZM18.686 18.378l.19.572.604.005c.078 0 .11.1.048.147l-.485.358.181.575a.081.081 0 0 1-.124.09l-.491-.35-.49.35a.081.081 0 0 1-.125-.09l.181-.575-.485-.358a.081.081 0 0 1 .048-.147l.603-.005.191-.572a.081.081 0 0 1 .154 0ZM18.686 21.372l.19.572.604.004c.078.001.11.1.048.147l-.485.358.181.576a.081.081 0 0 1-.124.09l-.491-.35-.49.35a.081.081 0 0 1-.125-.09l.181-.576-.485-.358a.081.081 0 0 1 .048-.147l.603-.004.191-.572a.081.081 0 0 1 .154 0ZM21.01 10.923l.19.572.604.005c.078 0 .11.1.047.147l-.485.358.182.575a.081.081 0 0 1-.125.09l-.49-.35-.491.35a.081.081 0 0 1-.125-.09l.182-.575-.485-.358a.081.081 0 0 1 .047-.147l.604-.005.19-.572a.081.081 0 0 1 .155 0ZM21.01 13.917l.19.572.604.004c.078.001.11.1.047.147l-.485.359.182.575a.081.081 0 0 1-.125.09l-.49-.35-.491.35a.081.081 0 0 1-.125-.09l.182-.575-.485-.359a.081.081 0 0 1 .047-.147l.604-.004.19-.572a.081.081 0 0 1 .155 0ZM21.01 16.91l.19.573.604.004c.078 0 .11.1.047.147l-.485.358.182.575a.081.081 0 0 1-.125.09l-.49-.35-.491.35a.081.081 0 0 1-.125-.09l.182-.575-.485-.358a.081.081 0 0 1 .047-.147l.604-.004.19-.573a.081.081 0 0 1 .155 0ZM21.01 19.904l.19.572.604.005c.078 0 .11.1.047.146l-.485.359.182.575a.081.081 0 0 1-.125.09l-.49-.35-.491.35a.081.081 0 0 1-.125-.09l.182-.575-.485-.359a.081.081 0 0 1 .047-.146l.604-.005.19-.572a.081.081 0 0 1 .155 0ZM21.01 22.898l.19.572.604.004c.078.001.11.1.047.147l-.485.358.182.576a.081.081 0 0 1-.125.09l-.49-.35-.491.35a.081.081 0 0 1-.125-.09l.182-.576-.485-.358a.081.081 0 0 1 .047-.147l.604-.004.19-.572a.081.081 0 0 1 .155 0Z"/></g><defs><clipPath id="a"><path fill="#fff" d="M0 .324h50v50H0z"/></clipPath></defs></svg>