<svg viewBox="0 0 160 116" fill="none" xmlns="http://www.w3.org/2000/svg"><path d="M36.163 1.102l-.002.009c-.029.172-.059.43-.09.775-.06.688-.12 1.686-.176 2.964-.112 2.554-.212 6.203-.295 10.677-.167 8.946-.267 21.176-.267 34.507 0 20.47.067 32.76.35 40.331.141 3.787.336 6.379.601 8.216.265 1.84.596 2.89.989 3.615l.001.003 2.134 4 .392.735H12.3l-1.22-.002c-2.996-.009-5.825-.016-7.819.439-1.133.259-1.88.645-2.259 1.159-.324.442-.448 1.081-.122 2.08a.612.612 0 01.333.556c0 .075 0 .104-.002.114.015.023.11.146.517.321.41.175 1.08.379 2.164.592 4.345.857 14.942 1.808 40.68 2.141 33.201.4 72.524.4 87.577-.133h0l26.851-.917v-5.696l-15.113-.387-15.6-.4-.746-.02.301-.682 1.997-4.526.002-.004c.508-1.21.967-3.127 1.298-5.262.33-2.128.527-4.436.527-6.406v-7.659l.298-.132 5.734-2.533h.001C146.331 75.782 153 65.953 153 57.1c0-4.407-1.787-9.244-4.662-13.417-2.874-4.172-6.802-7.63-11.024-9.32h-.004l-5.2-2.134-.302-.124-.008-.326-.4-15.6-.388-15.25L84.031.534h-.002l-47.866.568zm86.836 17.432L83.066 18.5h0-40.5V13L42.5 8.04l-.007-.506H43L83.065 7.5h.003l39.742.133.499.002v5.488l.19 4.892.021.52-.521-.001zm.334 79.5v.196l-.133.144-3.333 3.599v.001l-3.2 3.466-.148.161H83.9c-9.098 0-15.98-.009-21.223-.161-5.235-.152-8.87-.448-11.455-1.035-2.598-.59-4.194-1.486-5.29-2.876-1.072-1.36-1.618-3.144-2.247-5.359l-.002-.01-.003-.01c-.178-.748-.346-2.35-.502-4.575-.157-2.243-.303-5.161-.428-8.573-.25-6.823-.417-15.63-.417-24.968v-.003l.233-32.934.003-.496H123.334V98.034zm19.269-49.179l.005.008.004.008c4.239 8.206 1.401 18.793-6.213 22.673l-.005.002-3.991 2.13-.736.391V40.134l.736.392 3.988 2.127.006.004c1.134.568 2.376 1.575 3.477 2.693 1.105 1.122 2.102 2.39 2.729 3.505z" fill="#000" stroke="#000"/><path fill="#EA8A8A" d="M43 8.034h80v10H43z"/><path d="M46 101.534c-4-2-4-23-2.866-76.5H123l-.5 73-6.5 7-59.5-.5-7.5-1.5-3-1.5z" fill="red" stroke="#000"/><path fill="#EA8A8A" d="M57 25.034h28v49H57z"/><path d="M100.1 51.401c0 1.2 1.867 4.267 4.267 6.667l4.267 4.4-4.267 4.4c-4.267 4.4-5.733 10.267-2.533 10.267.933 0 4.933-3.2 8.8-7.2l7.2-7.2-6.4-6.8c-6.4-6.8-11.334-8.8-11.334-4.534z" fill="#000"/><ellipse cx="71" cy="73.534" rx="14" ry="8.5" fill="#EA8A8A"/><path d="M59.034 54.868c-3.067 3.067-5.6 6.8-5.6 8.267 0 3.2 10.4 14 13.6 14 3.866 0 2.8-4.134-2.534-9.6l-4.933-5.067 4.933-5.067c2.667-2.8 4.934-5.733 4.934-6.666 0-3.334-4.934-1.334-10.4 4.133zM81.967 60.735c-6 12.933-6.8 17.066-3.2 17.066 2.4 0 15.067-25.6 14.133-28.266-1.866-4.667-5.2-1.2-10.933 11.2z" fill="#000"/><path d="M91.5 87.534H51l-3.5-.5-2.5-1-2-1 .5 7 .5 5 1.5 3.5 1.5 1 2 1 7.5 1.5h26l33.5.5 6.5-7-.5-25-4 3-3 2.5-3 2-3.5 2-4.5 2-4 1.5-4.5 1.5-4 .5z" fill="#BC0000"/><path d="M36.163 1.102l-.002.009c-.029.172-.059.43-.09.775-.06.688-.12 1.686-.176 2.964-.112 2.554-.212 6.203-.295 10.677-.167 8.946-.267 21.176-.267 34.507 0 20.47.067 32.76.35 40.331.141 3.787.336 6.379.601 8.216.265 1.84.596 2.89.989 3.615l.001.003 2.134 4 .392.735H12.3l-1.22-.002c-2.996-.009-5.825-.016-7.819.439-1.133.259-1.88.645-2.259 1.159-.324.442-.448 1.081-.122 2.08a.612.612 0 01.333.556c0 .075 0 .104-.002.114.015.023.11.146.517.321.41.175 1.08.379 2.164.592 4.345.857 14.942 1.808 40.68 2.141 33.201.4 72.524.4 87.577-.133h0l26.851-.917v-5.696l-15.113-.387-15.6-.4-.746-.02.301-.682 1.997-4.526.002-.004c.508-1.21.967-3.127 1.298-5.262.33-2.128.527-4.436.527-6.406v-7.659l.298-.132 5.734-2.533h.001C146.331 75.782 153 65.953 153 57.1c0-4.407-1.787-9.244-4.662-13.417-2.874-4.172-6.802-7.63-11.024-9.32h-.004l-5.2-2.134-.302-.124-.008-.326-.4-15.6-.388-15.25L84.031.534h-.002l-47.866.568zm86.836 17.432L83.066 18.5h0-40.5V13L42.5 8.04l-.007-.506H43L83.065 7.5h.003l39.742.133.499.002v5.488l.19 4.892.021.52-.521-.001zm.334 79.5v.196l-.133.144-3.333 3.599v.001l-3.2 3.466-.148.161H83.9c-9.098 0-15.98-.009-21.223-.161-5.235-.152-8.87-.448-11.455-1.035-2.598-.59-4.194-1.486-5.29-2.876-1.072-1.36-1.618-3.144-2.247-5.359l-.002-.01-.003-.01c-.178-.748-.346-2.35-.502-4.575-.157-2.243-.303-5.161-.428-8.573-.25-6.823-.417-15.63-.417-24.968v-.003l.233-32.934.003-.496H123.334V98.034zm19.269-49.179l.005.008.004.008c4.239 8.206 1.401 18.793-6.213 22.673l-.005.002-3.991 2.13-.736.391V40.134l.736.392 3.988 2.127.006.004c1.134.568 2.376 1.575 3.477 2.693 1.105 1.122 2.102 2.39 2.729 3.505z" fill="#000" stroke="#000"/></svg>