<svg width="160" height="116" viewBox="0 0 160 116" fill="none" xmlns="http://www.w3.org/2000/svg">
<path d="M36.1627 1.10201C36.1622 1.10484 36.1617 1.1077 36.1612 1.11061C36.1323 1.28279 36.102 1.5402 36.0713 1.88571C36.0104 2.57368 35.9514 3.57162 35.8952 4.84971C35.783 7.40382 35.6831 11.0531 35.5998 15.5266C35.4332 24.4726 35.3332 36.7027 35.3332 50.034C35.3332 70.5037 35.3999 82.7933 35.6828 90.3653C35.8243 94.1523 36.0194 96.7436 36.2843 98.5814C36.5494 100.421 36.8801 101.471 37.2728 102.196L37.2744 102.199L39.4077 106.199L39.7999 106.934H38.9665H12.2999C11.8916 106.934 11.4847 106.933 11.0809 106.932C8.08378 106.923 5.25514 106.916 3.26122 107.371C2.12769 107.63 1.3807 108.016 1.00242 108.53C0.677705 108.972 0.553696 109.611 0.880112 110.61C0.914936 110.627 0.949509 110.648 0.982836 110.674C1.2075 110.848 1.21238 111.097 1.21296 111.166C1.21361 111.241 1.21255 111.27 1.21147 111.28C1.22598 111.303 1.32086 111.426 1.72841 111.601C2.13881 111.776 2.80884 111.98 3.89244 112.193C8.23676 113.05 18.8338 114.001 44.5728 114.334C77.7735 114.734 117.096 114.734 132.149 114.201L132.149 114.201L159 113.284V110.434V107.588L143.887 107.201L128.287 106.801L127.541 106.781L127.842 106.099L129.839 101.573C129.84 101.572 129.84 101.571 129.841 101.569C130.349 100.359 130.808 98.4421 131.139 96.3074C131.469 94.1786 131.666 91.8711 131.666 89.9007V82.5673V82.2416L131.964 82.11L137.698 79.5767L137.699 79.5763C146.331 75.7832 153 65.9542 153 57.1007C153 52.6936 151.213 47.8574 148.338 43.6844C145.464 39.5121 141.536 36.0535 137.314 34.3649L137.31 34.3633L132.11 32.2299L131.808 32.1062L131.8 31.7802L131.4 16.1802L131.012 0.929924L84.0306 0.534004C84.0301 0.534004 84.0295 0.533997 84.029 0.533997L36.1627 1.10201ZM122.999 18.534L83.066 18.5H83.0655H43.066H42.566V18V13.0032V13L42.4999 8.04066L42.4932 7.53444L42.9994 7.53401L83.0655 7.49999L83.0676 7.5L122.81 7.63333L123.309 7.635V8.13333V13.1236L123.499 18.0145L123.52 18.5345L122.999 18.534ZM123.333 98.034V98.2299L123.2 98.3737L119.867 101.973L119.867 101.974L116.667 105.44L116.519 105.601H116.3H83.8998C74.8023 105.601 67.9192 105.592 62.677 105.44C57.4418 105.288 53.8074 104.992 51.2225 104.405C48.6241 103.815 47.0278 102.919 45.9322 101.529C44.8604 100.169 44.3136 98.3854 43.6855 96.1704L43.6826 96.1602L43.6801 96.1498C43.5021 95.4023 43.3337 93.8009 43.1782 91.5751C43.0214 89.3322 42.8753 86.4138 42.7502 83.0023C42.4999 76.1789 42.3332 67.3727 42.3332 58.034L42.3332 58.0305L42.566 25.0971L42.5695 24.6007H43.066H82.8332H122.833H123.333V25.1007V61.634V98.034ZM142.602 48.8555L142.607 48.8633L142.611 48.8712C146.85 57.0771 144.012 67.6642 136.398 71.5441C136.396 71.5448 136.395 71.5455 136.393 71.5463L132.402 73.6752L131.666 74.0673V73.234V57.1007V40.9673V40.134L132.402 40.5262L136.39 42.6535C136.392 42.6545 136.394 42.6555 136.396 42.6565C137.53 43.2248 138.772 44.2321 139.873 45.3498C140.978 46.4723 141.975 47.7406 142.602 48.8555Z" fill="black" stroke="black"/>
<rect x="42.9999" y="8.03394" width="80" height="10" fill="#EA8A8A"/>
<path d="M45.9998 101.534C41.9999 99.5339 41.9997 78.5339 43.1343 25.0339H123L122.5 98.0339L116 105.034L56.4997 104.534L48.9998 103.034L45.9998 101.534Z" fill="#FF0000" stroke="black"/>
<rect x="56.9999" y="25.0339" width="28" height="49" fill="#EA8A8A"/>
<path d="M100.1 51.4013C100.1 52.6013 101.967 55.668 104.367 58.068L108.634 62.468L104.367 66.868C100.1 71.268 98.6338 77.1346 101.834 77.1346C102.767 77.1346 106.767 73.9346 110.634 69.9346L117.834 62.7346L111.434 55.9346C105.034 49.1346 100.1 47.1346 100.1 51.4013Z" fill="black"/>
<ellipse cx="70.9999" cy="73.5339" rx="14" ry="8.5" fill="#EA8A8A"/>
<path d="M59.0337 54.868C55.967 57.9346 53.4337 61.668 53.4337 63.1346C53.4337 66.3346 63.8337 77.1346 67.0337 77.1346C70.9004 77.1346 69.8337 73.0013 64.5004 67.5346L59.567 62.468L64.5004 57.4013C67.167 54.6013 69.4337 51.668 69.4337 50.7346C69.4337 47.4013 64.5004 49.4013 59.0337 54.868Z" fill="black"/>
<path d="M81.9672 60.7346C75.9672 73.6679 75.1672 77.8013 78.7672 77.8013C81.1672 77.8013 93.8338 52.2013 92.9005 49.5346C91.0338 44.8679 87.7005 48.3346 81.9672 60.7346Z" fill="black"/>
<path d="M91.4999 87.5339H69.9999H54.9999H50.9999L47.4999 87.0339L44.9999 86.0339L42.9999 85.0339L43.4999 92.0339L43.9999 97.0339L45.4999 100.534L46.9999 101.534L48.9999 102.534L56.4999 104.034H66.4999H82.4999L116 104.534L122.5 97.5339L122 72.5339L118 75.5339L115 78.0339L112 80.0339L108.5 82.0339L104 84.0339L99.9999 85.5339L95.4999 87.0339L91.4999 87.5339Z" fill="#BC0000"/>
<path d="M36.1627 1.10201C36.1622 1.10484 36.1617 1.1077 36.1612 1.11061C36.1323 1.28279 36.102 1.5402 36.0713 1.88571C36.0104 2.57368 35.9514 3.57162 35.8952 4.84971C35.783 7.40382 35.6831 11.0531 35.5998 15.5266C35.4332 24.4726 35.3332 36.7027 35.3332 50.034C35.3332 70.5037 35.3999 82.7933 35.6828 90.3653C35.8243 94.1523 36.0194 96.7436 36.2843 98.5814C36.5494 100.421 36.8801 101.471 37.2728 102.196L37.2744 102.199L39.4077 106.199L39.7999 106.934H38.9665H12.2999C11.8916 106.934 11.4847 106.933 11.0809 106.932C8.08378 106.923 5.25514 106.916 3.26122 107.371C2.12769 107.63 1.3807 108.016 1.00242 108.53C0.677705 108.972 0.553696 109.611 0.880112 110.61C0.914936 110.627 0.949509 110.648 0.982836 110.674C1.2075 110.848 1.21238 111.097 1.21296 111.166C1.21361 111.241 1.21255 111.27 1.21147 111.28C1.22598 111.303 1.32086 111.426 1.72841 111.601C2.13881 111.776 2.80884 111.98 3.89244 112.193C8.23676 113.05 18.8338 114.001 44.5728 114.334C77.7735 114.734 117.096 114.734 132.149 114.201L132.149 114.201L159 113.284V110.434V107.588L143.887 107.201L128.287 106.801L127.541 106.781L127.842 106.099L129.839 101.573C129.84 101.572 129.84 101.571 129.841 101.569C130.349 100.359 130.808 98.4421 131.139 96.3074C131.469 94.1786 131.666 91.8711 131.666 89.9007V82.5673V82.2416L131.964 82.11L137.698 79.5767L137.699 79.5763C146.331 75.7832 153 65.9542 153 57.1007C153 52.6936 151.213 47.8574 148.338 43.6844C145.464 39.5121 141.536 36.0535 137.314 34.3649L137.31 34.3633L132.11 32.2299L131.808 32.1062L131.8 31.7802L131.4 16.1802L131.012 0.929924L84.0306 0.534004C84.0301 0.534004 84.0295 0.533997 84.029 0.533997L36.1627 1.10201ZM122.999 18.534L83.066 18.5H83.0655H43.066H42.566V18V13.0032V13L42.4999 8.04066L42.4932 7.53444L42.9994 7.53401L83.0655 7.49999L83.0676 7.5L122.81 7.63333L123.309 7.635V8.13333V13.1236L123.499 18.0145L123.52 18.5345L122.999 18.534ZM123.333 98.034V98.2299L123.2 98.3737L119.867 101.973L119.867 101.974L116.667 105.44L116.519 105.601H116.3H83.8998C74.8023 105.601 67.9192 105.592 62.677 105.44C57.4418 105.288 53.8074 104.992 51.2225 104.405C48.6241 103.815 47.0278 102.919 45.9322 101.529C44.8604 100.169 44.3136 98.3854 43.6855 96.1704L43.6826 96.1602L43.6801 96.1498C43.5021 95.4023 43.3337 93.8009 43.1782 91.5751C43.0214 89.3322 42.8753 86.4138 42.7502 83.0023C42.4999 76.1789 42.3332 67.3727 42.3332 58.034L42.3332 58.0305L42.566 25.0971L42.5695 24.6007H43.066H82.8332H122.833H123.333V25.1007V61.634V98.034ZM142.602 48.8555L142.607 48.8633L142.611 48.8712C146.85 57.0771 144.012 67.6642 136.398 71.5441C136.396 71.5448 136.395 71.5455 136.393 71.5463L132.402 73.6752L131.666 74.0673V73.234V57.1007V40.9673V40.134L132.402 40.5262L136.39 42.6535C136.392 42.6545 136.394 42.6555 136.396 42.6565C137.53 43.2248 138.772 44.2321 139.873 45.3498C140.978 46.4723 141.975 47.7406 142.602 48.8555Z" fill="black" stroke="black"/>
</svg>
