<svg xmlns="http://www.w3.org/2000/svg" fill="none" viewBox="0 0 50 50"><g clip-path="url(#a)"><path fill="#73AF00" d="M49.138 41.38H.863A.862.862 0 0 1 0 40.516V9.483c0-.476.386-.862.862-.862h48.275c.477 0 .863.386.863.862v31.034a.862.862 0 0 1-.863.862Z"/><path fill="#FFE15A" d="m24.552 13.204-18.17 11.06a.862.862 0 0 0 0 1.472l18.17 11.06a.862.862 0 0 0 .897 0l18.17-11.06a.862.862 0 0 0 0-1.472l-18.17-11.06a.863.863 0 0 0-.897 0Z"/><path fill="#41479B" d="M25 31.896a6.897 6.897 0 1 0 0-13.793 6.897 6.897 0 0 0 0 13.793Z"/><path fill="#F5F5F5" d="M19.082 21.472a6.846 6.846 0 0 0-.742 1.765c3.823-.287 9.479.782 13.078 4.275.235-.6.39-1.239.448-1.906-3.716-3.129-8.855-4.241-12.784-4.134ZM25.286 27.354l.183.55.58.005c.076 0 .107.096.047.14l-.467.346.175.553a.078.078 0 0 1-.12.087l-.472-.337-.473.337a.078.078 0 0 1-.12-.087l.175-.553-.466-.345a.078.078 0 0 1 .045-.142l.58-.004.184-.55a.078.078 0 0 1 .149 0ZM27.542 28.778l.079.237.25.002c.032 0 .045.041.02.06l-.202.149.075.238a.034.034 0 0 1-.051.037l-.204-.145-.203.145a.034.034 0 0 1-.051-.037l.075-.238-.201-.149a.034.034 0 0 1 .02-.06l.25-.002.078-.237c.01-.031.054-.031.065 0ZM24.31 26.308l.08.236.25.002c.032 0 .045.042.02.061l-.202.149.075.238a.034.034 0 0 1-.051.037l-.203-.145-.204.145a.034.034 0 0 1-.051-.037l.075-.238-.201-.149a.034.034 0 0 1 .02-.06l.25-.003.079-.236c.01-.031.053-.031.064 0ZM19.935 26.02l.079.237.25.002c.032 0 .046.042.02.06l-.201.15.075.237a.034.034 0 0 1-.052.038l-.203-.145-.203.145a.034.034 0 0 1-.052-.038l.075-.238-.2-.148a.034.034 0 0 1 .02-.06l.249-.003.079-.237c.01-.03.054-.03.064 0ZM23.595 28.696l.08.237.25.002c.031 0 .045.041.019.06l-.201.149.075.238a.034.034 0 0 1-.051.037l-.204-.145-.203.145a.034.034 0 0 1-.052-.037l.076-.238-.201-.148a.034.034 0 0 1 .02-.061l.25-.002.078-.237c.01-.03.054-.03.064 0ZM21.581 25.855l.065.194.204.001c.027 0 .038.034.016.05l-.164.121.062.195a.028.028 0 0 1-.043.03l-.166-.118-.166.119a.028.028 0 0 1-.042-.031l.061-.195-.164-.121a.028.028 0 0 1 .016-.05l.204-.001.065-.194a.028.028 0 0 1 .052 0ZM27.717 21.855l.08.242.256.002c.033 0 .047.043.02.062l-.205.152.077.244a.034.034 0 0 1-.053.038l-.208-.149-.208.149c-.027.02-.063-.007-.053-.038l.078-.244-.206-.152a.034.034 0 0 1 .02-.062l.256-.002.08-.242a.034.034 0 0 1 .066 0ZM20.216 24.67l.065.193.204.002c.027 0 .038.034.017.05l-.165.121.062.195a.027.027 0 0 1-.043.03l-.166-.118-.166.118a.027.027 0 0 1-.042-.03l.061-.195-.164-.121a.028.028 0 0 1 .016-.05l.205-.002.064-.194c.008-.024.044-.024.052 0ZM21.203 27.4l.097.294.31.002c.04 0 .056.052.024.075l-.249.184.094.295a.042.042 0 0 1-.064.047l-.252-.18-.252.18a.042.042 0 0 1-.064-.047l.094-.295-.25-.183a.042.042 0 0 1 .025-.076l.31-.002.097-.294c.013-.037.067-.037.08 0ZM28.8 28.84l.061.184.195.001c.025 0 .035.033.015.048l-.156.115.058.186a.026.026 0 0 1-.04.029l-.158-.113-.159.113a.026.026 0 0 1-.04-.03l.059-.185-.157-.115a.026.026 0 0 1 .015-.048l.195-.001.062-.185c.008-.024.042-.024.05 0ZM29.48 27.43l.08.237.25.002c.032 0 .045.041.019.06l-.201.149.075.238a.034.034 0 0 1-.051.038l-.204-.145-.203.145a.034.034 0 0 1-.052-.038l.076-.238-.201-.148a.034.034 0 0 1 .02-.061l.25-.002.078-.237c.01-.03.054-.03.064 0Z"/></g><defs><clipPath id="a"><path fill="#fff" d="M0 0h50v50H0z"/></clipPath></defs></svg>